# xmcd
#
# Track frame offsets:
#	150
#	16325
#	33695
#	52237
#
# Disc length: 939 seconds
# Revision: 0
# Processed by: cddbd v1.5.2PL0 Copyright (c) Steve Scherf et al.
# Submitted via: dBpowerAMP V12.0
#
DISCID=3203a904
DTITLE=Optimystic - Best Thing In The World [Single Part 2]
DYEAR=1995
DGENRE=Pop
TTITLE0=Best Thing In The World [Radio Mix]
TTITLE1=You Make Every Dream Come True
TTITLE2=I Do Believe
TTITLE3=Got To Be There
EXTD=
EXTT0=
EXTT1=
EXTT2=
EXTT3=
PLAYORDER=
